<svg width="26" height="26" viewBox="0 0 26 26" fill="none" xmlns="http://www.w3.org/2000/svg">
<path d="M22.7788 22.6036C22.9169 23.5978 22.5406 24.5473 21.8592 25.1424C21.7327 25.2542 21.5956 25.3523 21.4495 25.4366C21.3171 25.5119 21.179 25.5768 21.0329 25.6281C20.7014 25.7455 20.3561 25.7888 20.0165 25.7672C20.0073 25.7672 19.9981 25.7672 19.9889 25.7649C19.3053 25.7159 18.6469 25.4058 18.1808 24.9099C17.4247 24.1062 17.4465 23.1075 17.4556 22.8989C17.4556 22.7985 17.4603 22.7006 17.4718 22.6036H9.25403C9.2656 22.7006 9.27016 22.7985 9.27016 22.8989C9.2794 23.1075 9.30126 24.1062 8.54511 24.9099C8.07893 25.4058 7.42064 25.7159 6.73697 25.7649C6.72774 25.7672 6.7185 25.7672 6.70926 25.7672C6.36983 25.7888 6.02455 25.7455 5.69306 25.6281C5.54686 25.5768 5.40875 25.5119 5.27639 25.4366C5.13021 25.3523 4.99325 25.2542 4.86665 25.1436C4.8655 25.1436 4.8655 25.1424 4.8655 25.1424C4.18529 24.5462 3.80893 23.5978 3.94704 22.6036H0.986816C1.00638 22.5306 1.0271 22.4566 1.04666 22.3836C1.41496 21.0281 1.78327 19.6715 2.15157 18.3159L2.39327 18.3045L5.22114 18.1792C5.34889 18.1735 5.44673 18.0674 5.44097 17.942C5.43521 17.8154 5.33048 17.7174 5.20042 17.7243L2.51871 17.8428L2.27818 17.8542C2.41168 17.3595 2.54634 16.8658 2.67985 16.3722L2.91349 16.3916L5.18431 16.5796H5.20387C5.32242 16.5796 5.4237 16.4896 5.43292 16.371C5.44328 16.2457 5.35004 16.135 5.22344 16.1247L3.03549 15.9435L2.80185 15.9241C2.93766 15.4237 3.07348 14.9232 3.20929 14.4238L3.42566 14.507L5.58023 15.3313C5.6067 15.3416 5.63548 15.3473 5.6631 15.3473C5.75515 15.3473 5.84261 15.2914 5.87722 15.2014C5.92317 15.0839 5.86448 14.9517 5.74591 14.9061L3.54651 14.0635L3.33013 13.9815C4.52367 9.58778 5.71832 5.19409 6.91189 0.801514C7.77399 3.42816 8.63479 6.05481 9.49571 8.68032C10.1035 8.37479 11.5203 7.74891 13.3548 7.77741H13.371C15.2055 7.74891 16.6224 8.37479 17.2301 8.68032C18.091 6.05481 18.9519 3.42816 19.814 0.801514C21.0075 5.19409 22.2022 9.58778 23.3957 13.9815L23.1794 14.0635L20.9799 14.9061C20.8613 14.9517 20.8015 15.0839 20.8475 15.2014C20.8832 15.2914 20.9707 15.3473 21.0628 15.3473C21.0904 15.3473 21.118 15.3416 21.1456 15.3313L23.3002 14.507L23.5166 14.4238C23.6523 14.9232 23.7882 15.4237 23.924 15.9241L23.6903 15.9435L21.5024 16.1247C21.3758 16.135 21.2814 16.2457 21.2917 16.371C21.3021 16.4896 21.4034 16.5796 21.5208 16.5796H21.5404L23.8124 16.3916L24.046 16.3722C24.1796 16.8658 24.3141 17.3595 24.4477 17.8542L24.2071 17.8428L21.5243 17.7243C21.3943 17.7196 21.2895 17.8154 21.2838 17.942C21.2779 18.0674 21.377 18.1735 21.5036 18.1792L24.3326 18.3045L24.5743 18.3159C24.9426 19.6715 25.3109 21.0281 25.6792 22.3836C25.6988 22.4566 25.7195 22.5306 25.739 22.6036H22.7788Z" fill="#F4E041"/>
</svg>
